<?xml version="1.0" standalone="no"?><svg xmlns="http://www.w3.org/2000/svg" viewBox="0 0 1440 320"><path fill="#FBBE24" fill-opacity="1" d="M0,128L8.9,154.7C17.8,181,36,235,53,224C71.1,213,89,139,107,128C124.4,117,142,171,160,181.3C177.8,192,196,160,213,128C231.1,96,249,64,267,80C284.4,96,302,160,320,181.3C337.8,203,356,181,373,192C391.1,203,409,245,427,229.3C444.4,213,462,139,480,117.3C497.8,96,516,128,533,149.3C551.1,171,569,181,587,165.3C604.4,149,622,107,640,128C657.8,149,676,235,693,234.7C711.1,235,729,149,747,101.3C764.4,53,782,43,800,64C817.8,85,836,139,853,160C871.1,181,889,171,907,144C924.4,117,942,75,960,96C977.8,117,996,203,1013,245.3C1031.1,288,1049,288,1067,282.7C1084.4,277,1102,267,1120,240C1137.8,213,1156,171,1173,170.7C1191.1,171,1209,213,1227,208C1244.4,203,1262,149,1280,128C1297.8,107,1316,117,1333,112C1351.1,107,1369,85,1387,85.3C1404.4,85,1422,107,1431,117.3L1440,128L1440,320L1431.1,320C1422.2,320,1404,320,1387,320C1368.9,320,1351,320,1333,320C1315.6,320,1298,320,1280,320C1262.2,320,1244,320,1227,320C1208.9,320,1191,320,1173,320C1155.6,320,1138,320,1120,320C1102.2,320,1084,320,1067,320C1048.9,320,1031,320,1013,320C995.6,320,978,320,960,320C942.2,320,924,320,907,320C888.9,320,871,320,853,320C835.6,320,818,320,800,320C782.2,320,764,320,747,320C728.9,320,711,320,693,320C675.6,320,658,320,640,320C622.2,320,604,320,587,320C568.9,320,551,320,533,320C515.6,320,498,320,480,320C462.2,320,444,320,427,320C408.9,320,391,320,373,320C355.6,320,338,320,320,320C302.2,320,284,320,267,320C248.9,320,231,320,213,320C195.6,320,178,320,160,320C142.2,320,124,320,107,320C88.9,320,71,320,53,320C35.6,320,18,320,9,320L0,320Z"></path></svg>