<?xml version="1.0" standalone="no"?><svg xmlns="http://www.w3.org/2000/svg" viewBox="0 0 1440 320"><path fill="#fbbf24" fill-opacity="1" d="M0,160L16,154.7C32,149,64,139,96,138.7C128,139,160,149,192,165.3C224,181,256,203,288,181.3C320,160,352,96,384,80C416,64,448,96,480,101.3C512,107,544,85,576,112C608,139,640,213,672,213.3C704,213,736,139,768,138.7C800,139,832,213,864,224C896,235,928,181,960,181.3C992,181,1024,235,1056,256C1088,277,1120,267,1152,272C1184,277,1216,299,1248,266.7C1280,235,1312,149,1344,144C1376,139,1408,213,1424,250.7L1440,288L1440,0L1424,0C1408,0,1376,0,1344,0C1312,0,1280,0,1248,0C1216,0,1184,0,1152,0C1120,0,1088,0,1056,0C1024,0,992,0,960,0C928,0,896,0,864,0C832,0,800,0,768,0C736,0,704,0,672,0C640,0,608,0,576,0C544,0,512,0,480,0C448,0,416,0,384,0C352,0,320,0,288,0C256,0,224,0,192,0C160,0,128,0,96,0C64,0,32,0,16,0L0,0Z"></path></svg>